<?xml version="1.0" encoding="utf-8"?>
<!-- Generator: Adobe Illustrator 16.0.0, SVG Export Plug-In . SVG Version: 6.00 Build 0)  -->
<!DOCTYPE svg PUBLIC "-//W3C//DTD SVG 1.1//EN" "http://www.w3.org/Graphics/SVG/1.1/DTD/svg11.dtd">
<svg version="1.1" id="Layer_1" xmlns="http://www.w3.org/2000/svg" xmlns:xlink="http://www.w3.org/1999/xlink" x="0px" y="0px"
	 width="71px" height="62.6px" viewBox="0 0 71 62.6" enable-background="new 0 0 71 62.6" xml:space="preserve">
<g>
	<path fill="#FF6138" d="M68.5,7.4c-1.4-2.8-4.9-5.6-8.4-5.6c-0.4,0-0.9,0-1.3,0.1c-1,0.2-3.7,0.8-18.8,18c0,0,0,0-0.1,0
		c-1.2,0-1.9,0-20,19C11.1,47.9,2.5,57.2,2.4,57.3c-0.5,0.5-0.7,1.3-0.4,2c0.2,0.7,0.8,1.2,1.5,1.3c1,0.2,2.1,0.3,3.3,0.3
		c9.5,0,21-7.4,29-13.6c5.4-4.2,15.6-13.3,15.9-15.7c0.1-0.9-0.3-1.9-1.3-3.2l10.8-13.3c0.2,0,0.3,0,0.5,0l0,0c2,0,4.8-0.5,6.5-2.7
		C69.3,11.1,69.4,9.2,68.5,7.4z M8.3,56.8c11.7-12.5,28-29.6,31.7-32.7c1.9,1.2,6.2,5.2,7.4,7C44,35.6,22.7,55.4,8.3,56.8z M65.1,10
		c-0.8,1-2.6,1.1-3.4,1.1c-0.6,0-1.1-0.1-1.1-0.1c-0.7-0.1-1.4,0.2-1.9,0.7L47.9,25c-1.3-1.3-2.8-2.5-4.2-3.5
		C56.6,7.1,59.4,5.9,59.6,5.8c1.3-0.3,3.5,0.9,4.7,2.6C65.1,9.3,65.1,9.9,65.1,10z"/>
	<circle fill="#FF6138" cx="60.7" cy="8.7" r="1.3"/>
</g>
</svg>
