<?xml version="1.0" encoding="utf-8"?>
<!-- Generator: Adobe Illustrator 16.0.0, SVG Export Plug-In . SVG Version: 6.00 Build 0)  -->
<!DOCTYPE svg PUBLIC "-//W3C//DTD SVG 1.1//EN" "http://www.w3.org/Graphics/SVG/1.1/DTD/svg11.dtd">
<svg version="1.1" id="Layer_1" xmlns="http://www.w3.org/2000/svg" xmlns:xlink="http://www.w3.org/1999/xlink" x="0px" y="0px"
	 width="66.9px" height="56.3px" viewBox="0 0 66.9 56.3" enable-background="new 0 0 66.9 56.3" xml:space="preserve">
<g>
	<path fill="#00A388" d="M33.4,2.5c-17,0-30.8,13.8-30.8,30.8c0,7.1,2.4,13.9,6.9,19.4c0.7,0.9,2,1,2.8,0.3s1-2,0.3-2.8
		c-1.1-1.4-2.1-2.9-2.9-4.5l6.4-2.6c1-0.4,1.5-1.6,1.1-2.6c-0.4-1-1.6-1.5-2.6-1.1L8.1,42c-0.7-2-1.2-4.1-1.3-6.3h6.8
		c1.1,0,2-0.9,2-2c0-1.1-0.9-2-2-2H6.7c0.1-2.3,0.5-4.4,1.2-6.5l6.2,2.6c0.3,0.1,0.5,0.2,0.8,0.2c0.8,0,1.5-0.5,1.8-1.2
		c0.4-1-0.1-2.2-1.1-2.6l-6.2-2.6c1-2,2.2-3.8,3.6-5.5l4.6,4.6c0.4,0.4,0.9,0.6,1.4,0.6s1-0.2,1.4-0.6c0.8-0.8,0.8-2,0-2.8l-4.7-4.7
		c1.7-1.5,3.5-2.7,5.5-3.8l2.5,6c0.3,0.8,1.1,1.2,1.9,1.2c0.3,0,0.5,0,0.8-0.2c0.2-0.1,0.4-0.2,0.5-0.3c-0.2,1.7-0.4,4.3-0.4,8.2
		c0,4.7,0.1,10.5,0.5,12.2c0.7,3.1,3.5,5.4,6.8,5.4c0.5,0,1-0.1,1.5-0.2c3.8-0.8,6.2-4.5,5.4-8.2c-0.3-1.7-2.6-7-4.5-11.2
		c-1.8-4-3-6.4-3.9-7.8c0.3,0.3,0.8,0.4,1.2,0.4c1.1,0,2-0.9,2-2V6.6c2.3,0.2,4.5,0.6,6.6,1.3l-2.5,6c-0.4,1,0.1,2.2,1.1,2.6
		c0.3,0.1,0.5,0.2,0.8,0.2c0.8,0,1.5-0.5,1.8-1.2l2.5-6c2,1,3.8,2.3,5.4,3.7l-4.7,4.7c-0.8,0.8-0.8,2,0,2.8c0.4,0.4,0.9,0.6,1.4,0.6
		s1-0.2,1.4-0.6l4.6-4.6c1.4,1.7,2.7,3.6,3.6,5.6l-6.2,2.6c-1,0.4-1.5,1.6-1.1,2.6c0.3,0.8,1.1,1.2,1.9,1.2c0.3,0,0.5,0,0.8-0.2
		l6.2-2.5c0.6,2,1,4.2,1.2,6.4h-6.8c-1.1,0-2,0.9-2,2c0,1.1,0.9,2,2,2h6.8c-0.2,2.2-0.7,4.3-1.4,6.4l-6.4-2.7
		c-1-0.4-2.2,0.1-2.6,1.1c-0.4,1,0.1,2.2,1.1,2.6l6.3,2.6c-0.9,1.7-1.9,3.2-3.1,4.7c-0.7,0.8-0.6,2.1,0.3,2.8
		c0.4,0.3,0.8,0.5,1.3,0.5c0.6,0,1.1-0.2,1.5-0.7c4.6-5.5,7.1-12.5,7.1-19.7C64.3,16.3,50.4,2.5,33.4,2.5z M36.8,34.5
		c0.3,1.5-0.7,3.1-2.3,3.4c-1.6,0.3-3.2-0.7-3.5-2.2c-0.3-1.7-0.5-10.1-0.3-15.6C33,25.1,36.4,32.9,36.8,34.5z M29.5,12.4
		c-0.1,0-0.3,0-0.4,0c-0.7,0.1-1.2,0.4-1.6,1.4l-2.5-6c2.1-0.7,4.2-1.1,6.5-1.3v6.5c0,0.2,0,0.4,0.1,0.5
		C30.6,12.4,30.1,12.4,29.5,12.4z"/>
	
		<ellipse transform="matrix(0.2062 0.9785 -0.9785 0.2062 59.6998 -6.0019)" fill="#00A388" cx="33.5" cy="33.8" rx="1.3" ry="1.3"/>
</g>
</svg>
