<?xml version="1.0" encoding="utf-8"?>
<!-- Generator: Adobe Illustrator 16.0.0, SVG Export Plug-In . SVG Version: 6.00 Build 0)  -->
<!DOCTYPE svg PUBLIC "-//W3C//DTD SVG 1.1//EN" "http://www.w3.org/Graphics/SVG/1.1/DTD/svg11.dtd">
<svg version="1.1" id="Layer_1" xmlns="http://www.w3.org/2000/svg" xmlns:xlink="http://www.w3.org/1999/xlink" x="0px" y="0px"
	 width="54.5px" height="67.6px" viewBox="0 0 54.5 67.6" enable-background="new 0 0 54.5 67.6" xml:space="preserve">
<g>
	<path fill="#FF6138" d="M27.2,2.5C16,2.5,2.8,22.1,2.8,38.6c0,16.1,9.6,26.5,24.5,26.5s24.5-10.4,24.5-26.5
		C51.7,21.7,38.7,2.5,27.2,2.5z M27.2,6.5c7.8,0,18.5,14,20.2,28.3h-4.9V30c0-1.1-0.9-2-2-2s-2,0.9-2,2v4.8h-4.8V30c0-1.1-0.9-2-2-2
		s-2,0.9-2,2v4.8h-4.8V30c0-1.1-0.9-2-2-2s-2,0.9-2,2v4.8H16V30c0-1.1-0.9-2-2-2s-2,0.9-2,2v4.8H7C8.8,20.7,19.6,6.5,27.2,6.5z
		 M27.2,61.1c-9.9,0-20.4-5.9-20.5-22.3H14c0,0,0,0,0,0s0,0,0,0h8.8c0,0,0,0,0,0s0,0,0,0h8.8c0,0,0,0,0,0s0,0,0,0h8.8c0,0,0,0,0,0
		s0,0,0,0h7.1C47.6,55.3,37.1,61.1,27.2,61.1z"/>
	<path fill="#FF6138" d="M27.2,40.5c-1.5,0-2,0.9-4,5.4c-2.3,5.1-2.4,5.6-2,6.6c0.6,1.5,2.1,1.5,5.1,1.5l1.2,0c3.9,0,5.1,0,5.8-1.4
		c0.5-1.1,0.3-2.1-1.7-6.4C29.2,41.4,28.7,40.5,27.2,40.5z M27.4,50l-1.2,0c-0.2,0-0.3,0-0.5,0c0.3-0.6,0.6-1.4,1.1-2.5
		c0.1-0.2,0.2-0.5,0.4-0.9c0.2,0.4,0.4,0.8,0.6,1.3c0.4,0.9,0.7,1.6,1,2.1C28.3,50,27.8,50,27.4,50z"/>
</g>
</svg>
