<?xml version="1.0" encoding="utf-8"?>
<!-- Generator: Adobe Illustrator 16.0.0, SVG Export Plug-In . SVG Version: 6.00 Build 0)  -->
<!DOCTYPE svg PUBLIC "-//W3C//DTD SVG 1.1//EN" "http://www.w3.org/Graphics/SVG/1.1/DTD/svg11.dtd">
<svg version="1.1" id="Layer_1" xmlns="http://www.w3.org/2000/svg" xmlns:xlink="http://www.w3.org/1999/xlink" x="0px" y="0px"
	 width="82.5px" height="61.3px" viewBox="0 0 82.5 61.3" enable-background="new 0 0 82.5 61.3" xml:space="preserve">
<g>
	<path fill="#6D6E71" d="M42.4,5.8c-13.3,0-24.2,11.5-24.2,25.6c0,14.1,10.8,25.6,24.2,25.6c13.3,0,24.1-11.5,24.1-25.6
		C66.5,17.2,55.7,5.8,42.4,5.8z M42.4,52.9c-11.1,0-20.2-9.7-20.2-21.6c0-11.9,9-21.6,20.2-21.6c11.1,0,20.1,9.7,20.1,21.6
		C62.5,43.2,53.5,52.9,42.4,52.9z"/>
	<path fill="#6D6E71" d="M42.4,13.1c-9.4,0-17.1,8.2-17.1,18.2s7.7,18.2,17.1,18.2s17.1-8.2,17.1-18.2S51.8,13.1,42.4,13.1z
		 M42.4,45.5c-7.2,0-13.1-6.4-13.1-14.2c0-7.8,5.9-14.2,13.1-14.2c7.2,0,13.1,6.4,13.1,14.2C55.5,39.2,49.6,45.5,42.4,45.5z"/>
	<path fill="#6D6E71" d="M80.1,30.3l0.1-25c0-0.6-0.3-1.2-0.8-1.6c-0.5-0.4-1.1-0.5-1.8-0.3c-0.3,0.1-7.2,2.2-7.2,14.5
		c0,5.8,0.4,10.1,1,12.4c-0.4,0.6-0.6,1.3-0.6,2.1v21.8c0,2.1,1.7,3.8,3.7,3.8h2.3c2.1,0,3.7-1.7,3.7-3.8V32.3
		C80.7,31.6,80.5,30.9,80.1,30.3z M76.2,9.7l-0.1,18.7h-0.9c-0.3-1.3-0.7-4.4-0.7-10.6C74.5,13.9,75.3,11.3,76.2,9.7z M76.7,54h-1.7
		V32.5h1.7V54z"/>
	<path fill="#6D6E71" d="M14.1,3.4c-1.1,0-2,0.9-2,2v7.3H11V5.4c0-1.1-0.9-2-2-2s-2,0.9-2,2v7.3H5.8V5.4c0-1.1-0.9-2-2-2s-2,0.9-2,2
		v9.3c0,0,0,0,0,0c0,0,0,0,0,0c0,0.1,0,0.3,0.1,0.4c0,0,0,0.1,0,0.1c0,0.1,0.1,0.2,0.1,0.3c0,0,0,0.1,0,0.1L5.2,21
		c-0.7,0.7-1.1,1.7-1.1,2.8v30.4c0,2.1,1.7,3.8,3.7,3.8h2.3c2.1,0,3.7-1.7,3.7-3.8V23.7c0-1.1-0.5-2.1-1.2-2.8l3.1-5.2
		c0,0,0,0,0-0.1c0.1-0.1,0.1-0.2,0.1-0.3c0,0,0-0.1,0-0.1c0-0.1,0.1-0.3,0.1-0.4c0,0,0,0,0-0.1c0,0,0,0,0,0V5.4
		C16.1,4.3,15.2,3.4,14.1,3.4z M10.5,16.7l-1.6,2.7l-1.6-2.7H10.5z M8.1,54V24.3c0.3,0.1,0.5,0.2,0.8,0.2c0.3,0,0.6-0.1,0.9-0.2V54
		H8.1z"/>
</g>
</svg>
